<svg class="main-svg" xmlns="http://www.w3.org/2000/svg" xmlns:xlink="http://www.w3.org/1999/xlink" width="700" height="500" style="" viewBox="0 0 700 500"><rect x="0" y="0" width="700" height="500" style="fill: rgb(14, 17, 23); fill-opacity: 1;"/><defs id="defs-3df019"><g class="clips"><clipPath id="clip3df019polar-for-traces"><path d="M180,0A180,180 0,1,0 -180,-2.2043642384652358e-14A180,180 0,1,0 180,4.4087284769304716e-14Z" transform="translate(180,180)"/></clipPath></g><g class="gradients"/><g class="patterns"/></defs><g class="bglayer"/><g class="layer-below"><g class="imagelayer"/><g class="shapelayer"/></g><g class="cartesianlayer"/><g class="polarlayer"><g class="polar"><g class="polarsublayer draglayer"/><g class="polarsublayer plotbg"><path d="M180,0A180,180 0,1,0 -180,-2.2043642384652358e-14A180,180 0,1,0 180,4.4087284769304716e-14Z" transform="translate(350,240)" style="fill: rgb(255, 255, 255); fill-opacity: 1;"/></g><g class="polarsublayer backplot"><g class="maplayer"/></g><g class="polarsublayer angular-grid" style="fill: none;"><path class="angularaxisgrid" d="M350,240L350,60" style="stroke: rgb(180, 180, 180); stroke-opacity: 1; stroke-width: 1px;"/><path class="angularaxisgrid" d="M350,240L530,240" style="stroke: rgb(180, 180, 180); stroke-opacity: 1; stroke-width: 1px;"/><path class="angularaxisgrid" d="M350,240L350,420" style="stroke: rgb(180, 180, 180); stroke-opacity: 1; stroke-width: 1px;"/><path class="angularaxisgrid" d="M350,240L170,240.00000000000003" style="stroke: rgb(180, 180, 180); stroke-opacity: 1; stroke-width: 1px;"/></g><g class="polarsublayer radial-grid" transform="translate(350,240)" style="fill: none;"><path class="xgrid" d="M36,0A36,36 0,1,0 -36,-4.408728476930472e-15A36,36 0,1,0 36,8.817456953860943e-15Z" style="stroke: rgb(180, 180, 180); stroke-opacity: 1; stroke-width: 1px;"/><path class="xgrid" d="M72,0A72,72 0,1,0 -72,-8.817456953860943e-15A72,72 0,1,0 72,1.7634913907721887e-14Z" style="stroke: rgb(180, 180, 180); stroke-opacity: 1; stroke-width: 1px;"/><path class="xgrid" d="M108,0A108,108 0,1,0 -108,-1.3226185430791415e-14A108,108 0,1,0 108,2.645237086158283e-14Z" style="stroke: rgb(180, 180, 180); stroke-opacity: 1; stroke-width: 1px;"/><path class="xgrid" d="M144,0A144,144 0,1,0 -144,-1.7634913907721887e-14A144,144 0,1,0 144,3.5269827815443773e-14Z" style="stroke: rgb(180, 180, 180); stroke-opacity: 1; stroke-width: 1px;"/></g><g class="polarsublayer frontplot" transform="translate(170,60)" clip-path="url(#clip3df019polar-for-traces)"><g class="barlayer"/><g class="scatterlayer"><g class="trace scatter traced2f5c1" style="stroke-miterlimit: 2; opacity: 1;"><g class="fills"><g><path class="js-fill" d="M180,30.6L216.75,180L180,210.06L79.82,180L180,30.6Z" style="fill: rgb(169, 229, 184); fill-opacity: 0.3; stroke-width: 0;"/></g></g><g class="errorbars"/><g class="lines"><path class="js-line" d="M180,30.6L216.75,180L180,210.06L79.82,180L180,30.6" style="vector-effect: none; fill: none; stroke: rgb(0, 0, 1); stroke-opacity: 1; stroke-width: 2px; opacity: 1;"/></g><g class="points"/><g class="text"/></g></g></g><g class="polarsublayer angular-line"><path d="M180,0A180,180 0,1,0 -180,-2.2043642384652358e-14A180,180 0,1,0 180,4.4087284769304716e-14Z" transform="translate(350,240)" stroke-width="1" style="fill: none; stroke: rgb(68, 68, 68); stroke-opacity: 1;"/></g><g class="polarsublayer radial-line"><line x1="0" y1="0" x2="180" y2="0" transform="translate(350,240)" stroke-width="1" style="fill: none; stroke: rgb(68, 68, 68); stroke-opacity: 1;"/></g><g class="polarsublayer angular-axis"><path class="angularaxistick ticks" d="M0.5,0h5" transform="translate(350,60)rotate(-90)" style="stroke: rgb(68, 68, 68); stroke-opacity: 1; stroke-width: 1px;"/><path class="angularaxistick ticks" d="M0.5,0h5" transform="translate(530,240)" style="stroke: rgb(68, 68, 68); stroke-opacity: 1; stroke-width: 1px;"/><path class="angularaxistick ticks" d="M0.5,0h5" transform="translate(350,420)rotate(90)" style="stroke: rgb(68, 68, 68); stroke-opacity: 1; stroke-width: 1px;"/><path class="angularaxistick ticks" d="M0.5,0h5" transform="translate(170,240.00000000000003)rotate(180)" style="stroke: rgb(68, 68, 68); stroke-opacity: 1; stroke-width: 1px;"/><g class="angularaxistick"><text text-anchor="middle" x="4.837354856632045e-16" y="-10.3" transform="translate(350,60)" style="font-family: 'Open Sans', verdana, arial, sans-serif; font-size: 12px; fill: rgb(255, 255, 255); fill-opacity: 1; white-space: pre; opacity: 1;">popularity</text></g><g class="angularaxistick"><text text-anchor="start" x="7.9" y="4.199999999999999" transform="translate(530,240)" style="font-family: 'Open Sans', verdana, arial, sans-serif; font-size: 12px; fill: rgb(255, 255, 255); fill-opacity: 1; white-space: pre; opacity: 1;">loudness</text></g><g class="angularaxistick"><text text-anchor="middle" x="4.837354856632045e-16" y="19.9" transform="translate(350,420)" style="font-family: 'Open Sans', verdana, arial, sans-serif; font-size: 12px; fill: rgb(255, 255, 255); fill-opacity: 1; white-space: pre; opacity: 1;">liveness</text></g><g class="angularaxistick"><text text-anchor="end" x="-7.9" y="4.200000000000002" transform="translate(170,240.00000000000003)" style="font-family: 'Open Sans', verdana, arial, sans-serif; font-size: 12px; fill: rgb(255, 255, 255); fill-opacity: 1; white-space: pre; opacity: 1;">tempo</text></g></g><g class="polarsublayer radial-axis" transform="translate(350,240)"><path class="xtick ticks" d="M0,0.5v5" transform="" style="stroke: rgb(68, 68, 68); stroke-opacity: 1; stroke-width: 1px;"/><path class="xtick ticks" d="M0,0.5v5" transform="translate(36,0)" style="stroke: rgb(68, 68, 68); stroke-opacity: 1; stroke-width: 1px;"/><path class="xtick ticks" d="M0,0.5v5" transform="translate(72,0)" style="stroke: rgb(68, 68, 68); stroke-opacity: 1; stroke-width: 1px;"/><path class="xtick ticks" d="M0,0.5v5" transform="translate(108,0)" style="stroke: rgb(68, 68, 68); stroke-opacity: 1; stroke-width: 1px;"/><path class="xtick ticks" d="M0,0.5v5" transform="translate(144,0)" style="stroke: rgb(68, 68, 68); stroke-opacity: 1; stroke-width: 1px;"/><path class="xtick ticks" d="M0,0.5v5" transform="translate(180,0)" style="stroke: rgb(68, 68, 68); stroke-opacity: 1; stroke-width: 1px;"/><g class="xtick"><text text-anchor="middle" x="0" y="19.9" transform="" style="font-family: 'Open Sans', verdana, arial, sans-serif; font-size: 12px; fill: rgb(255, 255, 255); fill-opacity: 1; white-space: pre; opacity: 1;">0</text></g><g class="xtick"><text text-anchor="middle" x="0" y="19.9" transform="translate(36,0)" style="font-family: 'Open Sans', verdana, arial, sans-serif; font-size: 12px; fill: rgb(255, 255, 255); fill-opacity: 1; white-space: pre; opacity: 1;">20</text></g><g class="xtick"><text text-anchor="middle" x="0" y="19.9" transform="translate(72,0)" style="font-family: 'Open Sans', verdana, arial, sans-serif; font-size: 12px; fill: rgb(255, 255, 255); fill-opacity: 1; white-space: pre; opacity: 1;">40</text></g><g class="xtick"><text text-anchor="middle" x="0" y="19.9" transform="translate(108,0)" style="font-family: 'Open Sans', verdana, arial, sans-serif; font-size: 12px; fill: rgb(255, 255, 255); fill-opacity: 1; white-space: pre; opacity: 1;">60</text></g><g class="xtick"><text text-anchor="middle" x="0" y="19.9" transform="translate(144,0)" style="font-family: 'Open Sans', verdana, arial, sans-serif; font-size: 12px; fill: rgb(255, 255, 255); fill-opacity: 1; white-space: pre; opacity: 1;">80</text></g><g class="xtick"><text text-anchor="middle" x="0" y="19.9" transform="translate(180,0)" style="font-family: 'Open Sans', verdana, arial, sans-serif; font-size: 12px; fill: rgb(255, 255, 255); fill-opacity: 1; white-space: pre; opacity: 1;">100</text></g></g></g></g><g class="smithlayer"/><g class="ternarylayer"/><g class="geolayer"/><g class="funnelarealayer"/><g class="pielayer"/><g class="iciclelayer"/><g class="treemaplayer"/><g class="sunburstlayer"/><g class="glimages"/><defs id="topdefs-3df019"><g class="clips"/></defs><g class="layer-above"><g class="imagelayer"/><g class="shapelayer"/></g><g class="infolayer"><g class="g-gtitle"><text class="gtitle" x="350" y="30" text-anchor="middle" dy="0em" style="font-family: 'Open Sans', verdana, arial, sans-serif; font-size: 17px; fill: rgb(255, 255, 255); opacity: 1; font-weight: normal; white-space: pre;">The Less I Know The Better by Tame Impala</text></g><g class="g-polartitle"/></g></svg>