<svg xmlns="http://www.w3.org/2000/svg" xmlns:xlink="http://www.w3.org/1999/xlink" version="1.1" class="marks" width="565" height="360" viewBox="0 0 565 360"><rect width="565" height="360" fill="white"/><g fill="none" stroke-miterlimit="10" transform="translate(44,10)"><g class="mark-group role-frame root" role="graphics-object" aria-roledescription="group mark container"><g transform="translate(0,0)"><path class="background" aria-hidden="true" d="M0.5,0.5h460v300h-460Z" stroke="#ddd"/><g><g class="mark-group role-axis" aria-hidden="true"><g transform="translate(0.5,0.5)"><path class="background" aria-hidden="true" d="M0,0h0v0h0Z" pointer-events="none"/><g><g class="mark-rule role-axis-grid" pointer-events="none"><line transform="translate(0,300)" x2="460" y2="0" stroke="#ddd" stroke-width="1" opacity="1"/><line transform="translate(0,250)" x2="460" y2="0" stroke="#ddd" stroke-width="1" opacity="1"/><line transform="translate(0,200)" x2="460" y2="0" stroke="#ddd" stroke-width="1" opacity="1"/><line transform="translate(0,150)" x2="460" y2="0" stroke="#ddd" stroke-width="1" opacity="1"/><line transform="translate(0,100)" x2="460" y2="0" stroke="#ddd" stroke-width="1" opacity="1"/><line transform="translate(0,50)" x2="460" y2="0" stroke="#ddd" stroke-width="1" opacity="1"/><line transform="translate(0,0)" x2="460" y2="0" stroke="#ddd" stroke-width="1" opacity="1"/></g></g><path class="foreground" aria-hidden="true" d="" pointer-events="none" display="none"/></g></g><g class="mark-group role-axis" role="graphics-symbol" aria-roledescription="axis" aria-label="X-axis titled 'year' for a discrete scale with 23 values: 1998, 1999, 2000, 2001, 2002, ending with 2020"><g transform="translate(0.5,300.5)"><path class="background" aria-hidden="true" d="M0,0h0v0h0Z" pointer-events="none"/><g><g class="mark-rule role-axis-tick" pointer-events="none"><line transform="translate(10,0)" x2="0" y2="5" stroke="#888" stroke-width="1" opacity="1"/><line transform="translate(30,0)" x2="0" y2="5" stroke="#888" stroke-width="1" opacity="1"/><line transform="translate(50,0)" x2="0" y2="5" stroke="#888" stroke-width="1" opacity="1"/><line transform="translate(70,0)" x2="0" y2="5" stroke="#888" stroke-width="1" opacity="1"/><line transform="translate(90,0)" x2="0" y2="5" stroke="#888" stroke-width="1" opacity="1"/><line transform="translate(110,0)" x2="0" y2="5" stroke="#888" stroke-width="1" opacity="1"/><line transform="translate(130,0)" x2="0" y2="5" stroke="#888" stroke-width="1" opacity="1"/><line transform="translate(150,0)" x2="0" y2="5" stroke="#888" stroke-width="1" opacity="1"/><line transform="translate(170,0)" x2="0" y2="5" stroke="#888" stroke-width="1" opacity="1"/><line transform="translate(190,0)" x2="0" y2="5" stroke="#888" stroke-width="1" opacity="1"/><line transform="translate(210,0)" x2="0" y2="5" stroke="#888" stroke-width="1" opacity="1"/><line transform="translate(230,0)" x2="0" y2="5" stroke="#888" stroke-width="1" opacity="1"/><line transform="translate(250,0)" x2="0" y2="5" stroke="#888" stroke-width="1" opacity="1"/><line transform="translate(270,0)" x2="0" y2="5" stroke="#888" stroke-width="1" opacity="1"/><line transform="translate(290,0)" x2="0" y2="5" stroke="#888" stroke-width="1" opacity="1"/><line transform="translate(310,0)" x2="0" y2="5" stroke="#888" stroke-width="1" opacity="1"/><line transform="translate(330,0)" x2="0" y2="5" stroke="#888" stroke-width="1" opacity="1"/><line transform="translate(350,0)" x2="0" y2="5" stroke="#888" stroke-width="1" opacity="1"/><line transform="translate(370,0)" x2="0" y2="5" stroke="#888" stroke-width="1" opacity="1"/><line transform="translate(390,0)" x2="0" y2="5" stroke="#888" stroke-width="1" opacity="1"/><line transform="translate(410,0)" x2="0" y2="5" stroke="#888" stroke-width="1" opacity="1"/><line transform="translate(430,0)" x2="0" y2="5" stroke="#888" stroke-width="1" opacity="1"/><line transform="translate(450,0)" x2="0" y2="5" stroke="#888" stroke-width="1" opacity="1"/></g><g class="mark-text role-axis-label" pointer-events="none"><text text-anchor="end" transform="translate(9.5,7) rotate(270) translate(0,3)" font-family="sans-serif" font-size="10px" fill="#000" opacity="1">1998</text><text text-anchor="end" transform="translate(29.5,7) rotate(270) translate(0,3)" font-family="sans-serif" font-size="10px" fill="#000" opacity="1">1999</text><text text-anchor="end" transform="translate(49.5,7) rotate(270) translate(0,3)" font-family="sans-serif" font-size="10px" fill="#000" opacity="1">2000</text><text text-anchor="end" transform="translate(69.5,7) rotate(270) translate(0,3)" font-family="sans-serif" font-size="10px" fill="#000" opacity="1">2001</text><text text-anchor="end" transform="translate(89.5,7) rotate(270) translate(0,3)" font-family="sans-serif" font-size="10px" fill="#000" opacity="1">2002</text><text text-anchor="end" transform="translate(109.5,7) rotate(270) translate(0,3)" font-family="sans-serif" font-size="10px" fill="#000" opacity="1">2003</text><text text-anchor="end" transform="translate(129.5,7) rotate(270) translate(0,3)" font-family="sans-serif" font-size="10px" fill="#000" opacity="1">2004</text><text text-anchor="end" transform="translate(149.5,7) rotate(270) translate(0,3)" font-family="sans-serif" font-size="10px" fill="#000" opacity="1">2005</text><text text-anchor="end" transform="translate(169.5,7) rotate(270) translate(0,3)" font-family="sans-serif" font-size="10px" fill="#000" opacity="1">2006</text><text text-anchor="end" transform="translate(189.5,7) rotate(270) translate(0,3)" font-family="sans-serif" font-size="10px" fill="#000" opacity="1">2007</text><text text-anchor="end" transform="translate(209.5,7) rotate(270) translate(0,3)" font-family="sans-serif" font-size="10px" fill="#000" opacity="1">2008</text><text text-anchor="end" transform="translate(229.5,7) rotate(270) translate(0,3)" font-family="sans-serif" font-size="10px" fill="#000" opacity="1">2009</text><text text-anchor="end" transform="translate(249.5,7) rotate(270) translate(0,3)" font-family="sans-serif" font-size="10px" fill="#000" opacity="1">2010</text><text text-anchor="end" transform="translate(269.5,7) rotate(270) translate(0,3)" font-family="sans-serif" font-size="10px" fill="#000" opacity="1">2011</text><text text-anchor="end" transform="translate(289.5,7) rotate(270) translate(0,3)" font-family="sans-serif" font-size="10px" fill="#000" opacity="1">2012</text><text text-anchor="end" transform="translate(309.5,7) rotate(270) translate(0,3)" font-family="sans-serif" font-size="10px" fill="#000" opacity="1">2013</text><text text-anchor="end" transform="translate(329.5,7) rotate(270) translate(0,3)" font-family="sans-serif" font-size="10px" fill="#000" opacity="1">2014</text><text text-anchor="end" transform="translate(349.5,7) rotate(270) translate(0,3)" font-family="sans-serif" font-size="10px" fill="#000" opacity="1">2015</text><text text-anchor="end" transform="translate(369.5,7) rotate(270) translate(0,3)" font-family="sans-serif" font-size="10px" fill="#000" opacity="1">2016</text><text text-anchor="end" transform="translate(389.5,7) rotate(270) translate(0,3)" font-family="sans-serif" font-size="10px" fill="#000" opacity="1">2017</text><text text-anchor="end" transform="translate(409.5,7) rotate(270) translate(0,3)" font-family="sans-serif" font-size="10px" fill="#000" opacity="1">2018</text><text text-anchor="end" transform="translate(429.5,7) rotate(270) translate(0,3)" font-family="sans-serif" font-size="10px" fill="#000" opacity="1">2019</text><text text-anchor="end" transform="translate(449.5,7) rotate(270) translate(0,3)" font-family="sans-serif" font-size="10px" fill="#000" opacity="1">2020</text></g><g class="mark-rule role-axis-domain" pointer-events="none"><line transform="translate(0,0)" x2="460" y2="0" stroke="#888" stroke-width="1" opacity="1"/></g><g class="mark-text role-axis-title" pointer-events="none"><text text-anchor="middle" transform="translate(230,42.24609375)" font-family="sans-serif" font-size="11px" font-weight="bold" fill="#000" opacity="1">year</text></g></g><path class="foreground" aria-hidden="true" d="" pointer-events="none" display="none"/></g></g><g class="mark-group role-axis" role="graphics-symbol" aria-roledescription="axis" aria-label="Y-axis titled 'count' for a linear scale with values from 0 to 120"><g transform="translate(0.5,0.5)"><path class="background" aria-hidden="true" d="M0,0h0v0h0Z" pointer-events="none"/><g><g class="mark-rule role-axis-tick" pointer-events="none"><line transform="translate(0,300)" x2="-5" y2="0" stroke="#888" stroke-width="1" opacity="1"/><line transform="translate(0,250)" x2="-5" y2="0" stroke="#888" stroke-width="1" opacity="1"/><line transform="translate(0,200)" x2="-5" y2="0" stroke="#888" stroke-width="1" opacity="1"/><line transform="translate(0,150)" x2="-5" y2="0" stroke="#888" stroke-width="1" opacity="1"/><line transform="translate(0,100)" x2="-5" y2="0" stroke="#888" stroke-width="1" opacity="1"/><line transform="translate(0,50)" x2="-5" y2="0" stroke="#888" stroke-width="1" opacity="1"/><line transform="translate(0,0)" x2="-5" y2="0" stroke="#888" stroke-width="1" opacity="1"/></g><g class="mark-text role-axis-label" pointer-events="none"><text text-anchor="end" transform="translate(-7,303)" font-family="sans-serif" font-size="10px" fill="#000" opacity="1">0</text><text text-anchor="end" transform="translate(-7,253)" font-family="sans-serif" font-size="10px" fill="#000" opacity="1">20</text><text text-anchor="end" transform="translate(-7,203.00000000000003)" font-family="sans-serif" font-size="10px" fill="#000" opacity="1">40</text><text text-anchor="end" transform="translate(-7,153)" font-family="sans-serif" font-size="10px" fill="#000" opacity="1">60</text><text text-anchor="end" transform="translate(-7,103.00000000000001)" font-family="sans-serif" font-size="10px" fill="#000" opacity="1">80</text><text text-anchor="end" transform="translate(-7,52.999999999999986)" font-family="sans-serif" font-size="10px" fill="#000" opacity="1">100</text><text text-anchor="end" transform="translate(-7,3)" font-family="sans-serif" font-size="10px" fill="#000" opacity="1">120</text></g><g class="mark-rule role-axis-domain" pointer-events="none"><line transform="translate(0,300)" x2="0" y2="-300" stroke="#888" stroke-width="1" opacity="1"/></g><g class="mark-text role-axis-title" pointer-events="none"><text text-anchor="middle" transform="translate(-27.6845703125,150) rotate(-90) translate(0,-2)" font-family="sans-serif" font-size="11px" font-weight="bold" fill="#000" opacity="1">count</text></g></g><path class="foreground" aria-hidden="true" d="" pointer-events="none" display="none"/></g></g><g class="mark-rect role-mark marks" role="graphics-object" aria-roledescription="rect mark container"><path aria-label="year: 1998; count: 1; explicit: true" role="graphics-symbol" aria-roledescription="bar" d="M1,297.5h18v2.5h-18Z" fill="#f58518"/><path aria-label="year: 1999; count: 30; explicit: false" role="graphics-symbol" aria-roledescription="bar" d="M21,205h18v75h-18Z" fill="#4c78a8"/><path aria-label="year: 1999; count: 8; explicit: true" role="graphics-symbol" aria-roledescription="bar" d="M21,280h18v20h-18Z" fill="#f58518"/><path aria-label="year: 2000; count: 62; explicit: false" role="graphics-symbol" aria-roledescription="bar" d="M41,114.99999999999999h18v155h-18Z" fill="#4c78a8"/><path aria-label="year: 2000; count: 12; explicit: true" role="graphics-symbol" aria-roledescription="bar" d="M41,270h18v30h-18Z" fill="#f58518"/><path aria-label="year: 2001; count: 85; explicit: false" role="graphics-symbol" aria-roledescription="bar" d="M61,29.999999999999993h18v212.5h-18Z" fill="#4c78a8"/><path aria-label="year: 2001; count: 23; explicit: true" role="graphics-symbol" aria-roledescription="bar" d="M61,242.5h18v57.5h-18Z" fill="#f58518"/><path aria-label="year: 2002; count: 60; explicit: false" role="graphics-symbol" aria-roledescription="bar" d="M81,75h18v150h-18Z" fill="#4c78a8"/><path aria-label="year: 2002; count: 30; explicit: true" role="graphics-symbol" aria-roledescription="bar" d="M81,225h18v75h-18Z" fill="#f58518"/><path aria-label="year: 2003; count: 74; explicit: false" role="graphics-symbol" aria-roledescription="bar" d="M101,57.49999999999999h18v185h-18Z" fill="#4c78a8"/><path aria-label="year: 2003; count: 23; explicit: true" role="graphics-symbol" aria-roledescription="bar" d="M101,242.5h18v57.5h-18Z" fill="#f58518"/><path aria-label="year: 2004; count: 60; explicit: false" role="graphics-symbol" aria-roledescription="bar" d="M121,59.999999999999986h18v150h-18Z" fill="#4c78a8"/><path aria-label="year: 2004; count: 36; explicit: true" role="graphics-symbol" aria-roledescription="bar" d="M121,210h18v90h-18Z" fill="#f58518"/><path aria-label="year: 2005; count: 75; explicit: false" role="graphics-symbol" aria-roledescription="bar" d="M141,39.99999999999999h18v187.5h-18Z" fill="#4c78a8"/><path aria-label="year: 2005; count: 29; explicit: true" role="graphics-symbol" aria-roledescription="bar" d="M141,227.5h18v72.5h-18Z" fill="#f58518"/><path aria-label="year: 2006; count: 69; explicit: false" role="graphics-symbol" aria-roledescription="bar" d="M161,62.500000000000014h18v172.5h-18Z" fill="#4c78a8"/><path aria-label="year: 2006; count: 26; explicit: true" role="graphics-symbol" aria-roledescription="bar" d="M161,235h18v65h-18Z" fill="#f58518"/><path aria-label="year: 2007; count: 72; explicit: false" role="graphics-symbol" aria-roledescription="bar" d="M181,65h18v180h-18Z" fill="#4c78a8"/><path aria-label="year: 2007; count: 22; explicit: true" role="graphics-symbol" aria-roledescription="bar" d="M181,245h18v55h-18Z" fill="#f58518"/><path aria-label="year: 2008; count: 74; explicit: false" role="graphics-symbol" aria-roledescription="bar" d="M201,57.49999999999999h18v185h-18Z" fill="#4c78a8"/><path aria-label="year: 2008; count: 23; explicit: true" role="graphics-symbol" aria-roledescription="bar" d="M201,242.5h18v57.5h-18Z" fill="#f58518"/><path aria-label="year: 2009; count: 61; explicit: false" role="graphics-symbol" aria-roledescription="bar" d="M221,90.00000000000001h18v152.5h-18Z" fill="#4c78a8"/><path aria-label="year: 2009; count: 23; explicit: true" role="graphics-symbol" aria-roledescription="bar" d="M221,242.5h18v57.5h-18Z" fill="#f58518"/><path aria-label="year: 2010; count: 84; explicit: false" role="graphics-symbol" aria-roledescription="bar" d="M241,32.499999999999986h18v210h-18Z" fill="#4c78a8"/><path aria-label="year: 2010; count: 23; explicit: true" role="graphics-symbol" aria-roledescription="bar" d="M241,242.5h18v57.5h-18Z" fill="#f58518"/><path aria-label="year: 2011; count: 74; explicit: false" role="graphics-symbol" aria-roledescription="bar" d="M261,52.500000000000014h18v185h-18Z" fill="#4c78a8"/><path aria-label="year: 2011; count: 25; explicit: true" role="graphics-symbol" aria-roledescription="bar" d="M261,237.5h18v62.5h-18Z" fill="#f58518"/><path aria-label="year: 2012; count: 96; explicit: false" role="graphics-symbol" aria-roledescription="bar" d="M281,12.49999999999999h18v240h-18Z" fill="#4c78a8"/><path aria-label="year: 2012; count: 19; explicit: true" role="graphics-symbol" aria-roledescription="bar" d="M281,252.5h18v47.5h-18Z" fill="#f58518"/><path aria-label="year: 2013; count: 69; explicit: false" role="graphics-symbol" aria-roledescription="bar" d="M301,77.49999999999999h18v172.5h-18Z" fill="#4c78a8"/><path aria-label="year: 2013; count: 20; explicit: true" role="graphics-symbol" aria-roledescription="bar" d="M301,250h18v50h-18Z" fill="#f58518"/><path aria-label="year: 2014; count: 84; explicit: false" role="graphics-symbol" aria-roledescription="bar" d="M321,39.99999999999999h18v210h-18Z" fill="#4c78a8"/><path aria-label="year: 2014; count: 20; explicit: true" role="graphics-symbol" aria-roledescription="bar" d="M321,250h18v50h-18Z" fill="#f58518"/><path aria-label="year: 2015; count: 70; explicit: false" role="graphics-symbol" aria-roledescription="bar" d="M341,52.500000000000014h18v175h-18Z" fill="#4c78a8"/><path aria-label="year: 2015; count: 29; explicit: true" role="graphics-symbol" aria-roledescription="bar" d="M341,227.5h18v72.5h-18Z" fill="#f58518"/><path aria-label="year: 2016; count: 67; explicit: false" role="graphics-symbol" aria-roledescription="bar" d="M361,52.500000000000014h18v167.5h-18Z" fill="#4c78a8"/><path aria-label="year: 2016; count: 32; explicit: true" role="graphics-symbol" aria-roledescription="bar" d="M361,220.00000000000003h18v79.99999999999997h-18Z" fill="#f58518"/><path aria-label="year: 2017; count: 74; explicit: false" role="graphics-symbol" aria-roledescription="bar" d="M381,22.499999999999986h18v185h-18Z" fill="#4c78a8"/><path aria-label="year: 2017; count: 37; explicit: true" role="graphics-symbol" aria-roledescription="bar" d="M381,207.5h18v92.5h-18Z" fill="#f58518"/><path aria-label="year: 2018; count: 56; explicit: false" role="graphics-symbol" aria-roledescription="bar" d="M401,32.499999999999986h18v140h-18Z" fill="#4c78a8"/><path aria-label="year: 2018; count: 51; explicit: true" role="graphics-symbol" aria-roledescription="bar" d="M401,172.5h18v127.5h-18Z" fill="#f58518"/><path aria-label="year: 2019; count: 52; explicit: false" role="graphics-symbol" aria-roledescription="bar" d="M421,77.49999999999999h18v130h-18Z" fill="#4c78a8"/><path aria-label="year: 2019; count: 37; explicit: true" role="graphics-symbol" aria-roledescription="bar" d="M421,207.5h18v92.5h-18Z" fill="#f58518"/><path aria-label="year: 2020; count: 1; explicit: false" role="graphics-symbol" aria-roledescription="bar" d="M441,292.5h18v2.5h-18Z" fill="#4c78a8"/><path aria-label="year: 2020; count: 2; explicit: true" role="graphics-symbol" aria-roledescription="bar" d="M441,295h18v5h-18Z" fill="#f58518"/></g><g class="mark-group role-legend" role="graphics-symbol" aria-roledescription="legend" aria-label="Symbol legend titled 'explicit' for fill color with 2 values: false, true"><g transform="translate(478,0)"><path class="background" aria-hidden="true" d="M0,0h38v40h-38Z" pointer-events="none"/><g><g class="mark-group role-legend-entry"><g transform="translate(0,16)"><path class="background" aria-hidden="true" d="M0,0h0v0h0Z" pointer-events="none"/><g><g class="mark-group role-scope" role="graphics-object" aria-roledescription="group mark container"><g transform="translate(0,0)"><path class="background" aria-hidden="true" d="M0,0h37.123046875v11h-37.123046875Z" pointer-events="none" opacity="1"/><g><g class="mark-symbol role-legend-symbol" pointer-events="none"><path transform="translate(6,6)" d="M-5,-5h10v10h-10Z" fill="#4c78a8" stroke-width="1.5" opacity="1"/></g><g class="mark-text role-legend-label" pointer-events="none"><text text-anchor="start" transform="translate(16,9)" font-family="sans-serif" font-size="10px" fill="#000" opacity="1">false</text></g></g><path class="foreground" aria-hidden="true" d="" pointer-events="none" display="none"/></g><g transform="translate(0,13)"><path class="background" aria-hidden="true" d="M0,0h37.123046875v11h-37.123046875Z" pointer-events="none" opacity="1"/><g><g class="mark-symbol role-legend-symbol" pointer-events="none"><path transform="translate(6,6)" d="M-5,-5h10v10h-10Z" fill="#f58518" stroke-width="1.5" opacity="1"/></g><g class="mark-text role-legend-label" pointer-events="none"><text text-anchor="start" transform="translate(16,9)" font-family="sans-serif" font-size="10px" fill="#000" opacity="1">true</text></g></g><path class="foreground" aria-hidden="true" d="" pointer-events="none" display="none"/></g></g></g><path class="foreground" aria-hidden="true" d="" pointer-events="none" display="none"/></g></g><g class="mark-text role-legend-title" pointer-events="none"><text text-anchor="start" transform="translate(0,9)" font-family="sans-serif" font-size="11px" font-weight="bold" fill="#000" opacity="1">explicit</text></g></g><path class="foreground" aria-hidden="true" d="" pointer-events="none" display="none"/></g></g></g><path class="foreground" aria-hidden="true" d="" display="none"/></g></g></g></svg>